# xmcd
#
# Track frame offsets:
# 150
# 12849
# 27149
# 45536
# 63591
# 79606
# 101367
# 120057
# 135898
# 151836
# 172054
# 186992
# 198546
#
# Disc length: 2858 seconds
#
# Revision: 0
# Processed by: cddbd v1.5.1PL2 Copyright (c) Steve Scherf et al.
# Submitted via: Audion 3.0.2 (http://www.panic.com/audion/)
#
DISCID=970b280d
DTITLE=Mestre Barrao - Volume 6
DYEAR=1900
DGENRE=
TTITLE0=Sou Capoeira
TTITLE1=Saudade Do Mestre Waldemar
TTITLE2=Essa Arte
TTITLE3=Mundo Enganador
TTITLE4=Me Leva Pra Angola
TTITLE5=Casinha De Sape
TTITLE6=Saudoso Mestre Ezequiel
TTITLE7=Foi Maldade
TTITLE8=Cobra Traicoeira/Quando Meu Gunga Toca
TTITLE9=Menina Venha Comingo
TTITLE10=Sou Mandinga Balaida
TTITLE11=Um Brilho Clariava No Ar
TTITLE12=Afoxe-Moro Omim Ma
EXTD=
EXTT0=
EXTT1=
EXTT2=
EXTT3=
EXTT4=
EXTT5=
EXTT6=
EXTT7=
EXTT8=
EXTT9=
EXTT10=
EXTT11=
EXTT12=
PLAYORDER=
